<?xml version="1.0" encoding="UTF-8"?>
<svg
    xmlns="http://www.w3.org/2000/svg"
    xmlns:xlink="http://www.w3.org/1999/xlink"
    version="1.1" baseProfile="tiny"
    width="100mm" height="100mm"
    viewBox="0 0 100 100"
>
    <title>Icon</title>
    <polygon points="10,10 90,10 90,90 10,90" stroke="none" stroke-width="1" fill="lightgray"/>
    <polygon points="0,0 100,0 90,10 10,10 10,90, 0,100" stroke="none" stroke-width="1" fill="white"/>
    <polygon points="100,100 100,0 90,10 90,90 10,90 0,100" stroke="none" stroke-width="1" fill="darkgray"/>
    <polygon points="50,5 65,35 95,50 65,65 50,95 35,65 5,50 35,35" stroke="black" stroke-width="1" fill="black"/>
    <polygon points="15,15 50,40 85,15 60,50 85,85 50,60 15,85 40,50" stroke="black" stroke-width="1" fill="black"/>
    <circle cx="50" cy="50" r="30" stroke="black" stroke-width="1" fill="black"/>
    
    
</svg>